<svg width="31" height="32" viewBox="0 0 31 32" fill="none" xmlns="http://www.w3.org/2000/svg">
<path d="M25.4957 16.1963L10.4522 7.83925L13.3183 16.4377L10.1298 23.8783L25.4957 16.1963ZM30.0796 16.8846L6.43961 28.7055C6.31742 28.7668 6.17933 28.7891 6.04405 28.7694C5.90876 28.7496 5.78283 28.6887 5.68331 28.595C5.5838 28.5012 5.51551 28.3791 5.48772 28.2453C5.45992 28.1114 5.47395 27.9722 5.52791 27.8466L10.4682 16.3198L6.2963 3.80402C6.25379 3.6766 6.25076 3.53932 6.28761 3.41015C6.32446 3.28098 6.39947 3.16595 6.5028 3.08014C6.60615 2.99433 6.733 2.94174 6.86674 2.92925C7.00048 2.91677 7.13487 2.94498 7.25231 3.01018L30.106 15.706C30.2121 15.7651 30.3001 15.852 30.3604 15.9574C30.4207 16.0628 30.4511 16.1826 30.4483 16.304C30.4455 16.4254 30.4096 16.5437 30.3444 16.6462C30.2793 16.7487 30.1874 16.8314 30.0787 16.8855L30.0796 16.8846Z" fill="#1DA1F2"/>
</svg>
